HIERARCHY
ROOT Hips
{
	OFFSET 0.00000 0.00000 0.00000
	CHANNELS 6 Xposition Yposition Zposition Yrotation Zrotation Xrotation 
	JOINT Lumbar
	{
		OFFSET 0 0 0
		CHANNELS 3 Zrotation Xrotation Yrotation
		JOINT Neck
		{
			OFFSET 0.00 0.2701 0.00
			CHANNELS 3 Zrotation Xrotation Yrotation
			End Site
			{
				OFFSET 0.00 0.1379 0.00
			}
		}
		JOINT RightShoulder
		{
			OFFSET 0.0119 0.2289 0.1181
			CHANNELS 3 Zrotation Xrotation Yrotation
			JOINT RightElbow
			{
				OFFSET 0.00 -0.1475 0.00
				CHANNELS 2 Zrotation Yrotation
				JOINT RightWrist
				{
					OFFSET 0.00 -0.1605 0.00
					CHANNELS 2 Zrotation Xrotation
					End Site
					{
						OFFSET 0.0040 -0.1068 0.0006
					}
				}
			}
		}
		JOINT LeftShoulder
		{
			OFFSET 0.0119 0.2289 -0.1181
			CHANNELS 3 Zrotation Xrotation Yrotation
			JOINT LeftElbow
			{
				OFFSET 0.00 -0.1475 0.00
				CHANNELS 2 Zrotation Yrotation
				JOINT LeftWrist
				{
					OFFSET 0.00 -0.1605 0.00
					CHANNELS 2 Zrotation Xrotation
					End Site
					{
						OFFSET 0.0040 -0.1068 -0.0006
					}
				}
			}
		}
	}
	JOINT RightHip
	{
		OFFSET 0.0316 -0.0424 0.0458
		CHANNELS 3 Zrotation Xrotation Yrotation
		JOINT RightKnee
		{
			OFFSET 0.00 -0.2438 0.00
			CHANNELS 1 Zrotation
			JOINT RightAnkle
			{
				OFFSET 0.00 -0.2449 0.00
				CHANNELS 3 Zrotation Xrotation Yrotation
				End Site
				{
					OFFSET 0.1237 -0.0542 0.0051
				}
			}
		}
	}
	JOINT LeftHip
	{
		OFFSET 0.0316 -0.0424 -0.0458
		CHANNELS 3 Zrotation Xrotation Yrotation
		JOINT LeftKnee
		{
			OFFSET 0.00 -0.2438 0.00
			CHANNELS 1 Zrotation
			JOINT LeftAnkle
			{
				OFFSET 0.00 -0.2449 0.00
				CHANNELS 3 Zrotation Xrotation Yrotation
				End Site
				{
					OFFSET 0.1237 -0.0542 -0.0051
				}
			}
		}
	}
}
MOTION
Frames: 13
Frame Time: 0.02
-0.42812 -0.00754 -0.35087 209.7124 -32.08138 -0.85163 48.79373 -0.6687 0.27258 -14.07198 9.02283 -2.1199 -1.98785 -10.04177 41.94686 80.24128 81.47564 -7.58997 -3.1416 -32.34445 21.79138 -5.6848 63.12826 -80.94013 -3.07477 -0.30393 28.78896 6.58061 -15.54129 -10.99184 -6.91036 -2.19821 -3.34668 21.081 20.89312 24.48723 -0.3274 -15.88531 -32.92773 -12.93435
-0.429 -0.00748 -0.35258 209.85389 -32.05282 -0.71577 48.77015 -0.67753 0.31251 -14.1178 8.94539 -2.1199 -1.9799 -10.08546 41.80529 80.28082 81.48652 -7.67744 -3.15265 -32.35729 21.60116 -5.46557 63.1607 -80.88255 -3.24201 -1.62176 28.52423 6.74949 -15.40706 -10.4792 -6.9621 -2.218 -3.35482 21.12979 20.98461 24.45053 -0.33319 -16.29883 -33.02574 -12.98098
-0.42978 -0.0074 -0.35417 209.9698 -32.02863 -0.57862 48.7506 -0.68566 0.34657 -14.17414 8.8696 -2.1199 -1.96047 -10.11161 41.63435 80.26724 81.49436 -7.7654 -3.1583 -32.45886 21.30168 -5.02489 62.93315 -80.83592 -3.42209 -3.28071 28.26516 6.89146 -15.30152 -9.96231 -6.98224 -2.24529 -3.36319 21.1777 21.05324 24.26043 -0.33673 -16.63564 -32.8913 -12.93211
-0.43059 -0.00732 -0.35581 210.09604 -31.99752 -0.44252 48.72155 -0.69355 0.38637 -14.22469 8.79441 -2.1199 -1.93985 -10.16015 41.45124 80.27894 81.50268 -7.85327 -3.16479 -32.52166 21.06235 -4.6965 62.8073 -80.7897 -3.57601 -4.69001 27.99731 7.04609 -15.16671 -9.44291 -6.95771 -2.28254 -3.37644 21.22143 21.13137 24.11915 -0.3411 -17.01269 -32.83931 -12.91478
-0.43148 -0.00725 -0.35746 210.2249 -31.9862 -0.30426 48.72435 -0.7029 0.41496 -14.27993 8.71231 -2.1199 -1.9531 -10.13661 41.37537 80.29171 81.51487 -7.94217 -3.17896 -32.58104 20.78306 -4.32554 62.74794 -80.72264 -3.80844 -6.48116 27.75448 7.19909 -15.091 -8.94155 -7.17712 -2.26241 -3.36898 21.28171 21.21255 23.97988 -0.34544 -17.38578 -32.78313 -12.89796
-0.43218 -0.00717 -0.35906 210.34387 -31.93577 -0.17054 48.66211 -0.70966 0.46497 -14.32752 8.64708 -2.1199 -1.88387 -10.27303 41.0697 80.28179 81.51833 -8.02656 -3.17495 -32.66731 20.55897 -3.98648 62.48974 -80.70056 -3.88516 -7.57733 27.46303 7.34881 -14.9048 -8.40311 -6.88755 -2.36517 -3.40454 21.30979 21.28222 23.83022 -0.34964 -17.74106 -32.71658 -12.87508
-0.43243 -0.00711 -0.36054 210.43484 -31.76807 -0.04624 48.4176 -0.706 0.57409 -14.354 8.60828 -2.1199 -1.66433 -10.73625 40.13904 80.28537 81.49934 -8.11941 -3.12902 -32.80705 20.51962 -3.81144 61.74311 -80.80421 -3.50371 -6.50962 27.01596 7.49823 -14.37933 -7.74939 -5.14857 -2.7869 -3.55881 21.23183 21.32529 23.72562 -0.35396 -18.07412 -32.71739 -12.87579
-0.4325 -0.00706 -0.36197 210.51834 -31.56255 0.07281 48.10788 -0.70036 0.70506 -14.37188 8.59015 -2.11991 -1.34386 -11.38323 38.98255 80.25224 81.47267 -8.20239 -3.0635 -32.97005 20.53846 -3.67248 60.80647 -80.95201 -2.97015 -4.75731 26.52408 7.64469 -13.74761 -7.06194 -2.91203 -3.33314 -3.75585 21.12507 21.35764 23.62219 -0.35835 -18.38798 -32.72397 -12.87793
-0.43262 -0.007 -0.36342 210.61015 -31.37961 0.19202 47.82916 -0.69815 0.82665 -14.39204 8.57523 -2.11991 -1.02643 -12.02444 37.92172 80.19968 81.4474 -8.27805 -3.00256 -33.12149 20.52582 -3.50074 59.95895 -81.07625 -2.52381 -3.42975 26.06485 7.79129 -13.18344 -6.39775 -0.93217 -3.83734 -3.93391 21.04275 21.39535 23.50681 -0.36284 -18.70253 -32.71684 -12.87542
-0.43287 -0.00694 -0.36488 210.68033 -31.17356 0.32066 47.54477 -0.68579 0.94546 -14.41963 8.50657 -2.11991 -0.90777 -12.33733 36.86936 80.31419 81.42599 -8.40962 -2.96033 -33.28075 20.52875 -3.38618 59.08993 -81.21453 -2.00287 -1.65069 25.55117 7.94277 -12.53926 -5.69607 1.19397 -4.28976 -4.11209 20.91163 21.43054 23.43121 -0.36668 -19.04808 -32.74475 -12.88499
-0.4328 -0.00688 -0.3663 210.79403 -31.00724 0.42839 47.25669 -0.69342 1.0757 -14.42933 8.55547 -2.11991 -0.32823 -13.37729 35.77113 80.05206 81.40084 -8.41477 -2.87377 -33.42744 20.51692 -3.16943 58.22485 -81.33531 -1.59924 -0.6245 25.1437 8.0828 -12.03558 -5.06939 3.11295 -4.86776 -4.29763 20.87638 21.46828 23.27717 -0.37194 -19.32615 -32.70663 -12.87185
-0.43195 -0.00677 -0.36764 211.03082 -30.95412 0.48018 46.97374 -0.76277 1.22874 -14.39395 8.91766 -2.11991 1.30303 -16.37995 34.38311 78.93651 81.31519 -8.13683 -2.67749 -33.53889 20.42876 -2.61423 57.41141 -81.3857 -1.57148 -2.02271 25.00987 8.19951 -11.95109 -4.61612 4.51894 -5.86618 -4.5157 21.10384 21.51907 22.89051 -0.38117 -19.41318 -32.466 -12.78984
-0.43079 -0.00665 -0.36893 211.31152 -30.94308 0.5112 46.68914 -0.8512 1.39313 -14.34066 9.39857 -2.11991 3.43147 -20.10358 32.99461 77.41133 81.23577 -7.7191 -2.43679 -33.63572 20.3277 -1.96402 56.6113 -81.41965 -1.66371 -4.16962 24.98974 8.30325 -12.01063 -4.24706 5.67091 -6.96957 -4.73608 21.43022 21.57198 22.42574 -0.39191 -19.43316 -32.15982 -12.68491
